<svg xmlns="http://www.w3.org/2000/svg" viewBox="0 0 24 24">
  <path fill="black" fill-rule="evenodd" clip-rule="evenodd" d="M12 2C6.48 2 2 6.58 2 12.22c0 4.52 2.87 8.35 6.84 9.7.5.1.68-.22.68-.49 0-.24-.01-1.04-.01-1.89-2.78.61-3.37-1.22-3.37-1.22-.45-1.18-1.1-1.49-1.1-1.49-.9-.63.07-.62.07-.62 1 .07 1.52 1.05 1.52 1.05.89 1.55 2.34 1.1 2.91.84.09-.66.35-1.1.63-1.36-2.22-.26-4.55-1.14-4.55-5.05 0-1.12.39-2.03 1.03-2.75-.1-.26-.45-1.3.1-2.71 0 0 .85-.28 2.76 1.05A9.36 9.36 0 0 1 12 6.94c.85 0 1.7.12 2.5.34 1.91-1.33 2.75-1.05 2.75-1.05.55 1.41.2 2.45.1 2.71.64.72 1.03 1.63 1.03 2.75 0 3.92-2.34 4.78-4.57 5.04.36.32.68.94.68 1.89 0 1.36-.01 2.46-.01 2.8 0 .27.18.59.69.49A10.17 10.17 0 0 0 22 12.22C22 6.58 17.52 2 12 2Z"/>
</svg>
