<svg xmlns="http://www.w3.org/2000/svg" viewBox="0 0 24 24">
  <path fill="black" d="M12 7a5 5 0 1 0 0 10 5 5 0 0 0 0-10Zm0 8.2a3.2 3.2 0 1 1 0-6.4 3.2 3.2 0 0 1 0 6.4ZM12 4.6a.9.9 0 0 0 .9-.9V2a.9.9 0 0 0-1.8 0v1.7c0 .5.4.9.9.9ZM12 19.4a.9.9 0 0 0-.9.9V22a.9.9 0 0 0 1.8 0v-1.7c0-.5-.4-.9-.9-.9ZM22 11.1h-1.7a.9.9 0 1 0 0 1.8H22a.9.9 0 0 0 0-1.8ZM4.6 12a.9.9 0 0 0-.9-.9H2a.9.9 0 0 0 0 1.8h1.7c.5 0 .9-.4.9-.9ZM18.5 6.77l1.2-1.2A.9.9 0 0 0 18.43 4.3l-1.2 1.2a.9.9 0 1 0 1.27 1.27ZM5.5 17.23l-1.2 1.2a.9.9 0 1 0 1.27 1.27l1.2-1.2a.9.9 0 1 0-1.27-1.27ZM18.5 17.23a.9.9 0 1 0-1.27 1.27l1.2 1.2a.9.9 0 0 0 1.27-1.27l-1.2-1.2ZM5.57 4.3A.9.9 0 1 0 4.3 5.57l1.2 1.2A.9.9 0 1 0 6.77 5.5l-1.2-1.2Z"/>
</svg>
